<?xml version="1.0" encoding="utf-8"?>
<!-- Generator: Adobe Illustrator 22.1.0, SVG Export Plug-In . SVG Version: 6.00 Build 0)  -->
<svg version="1.1" id="Calque_1" xmlns="http://www.w3.org/2000/svg" xmlns:xlink="http://www.w3.org/1999/xlink" x="0px" y="0px"
	 viewBox="0 0 83.1 82" style="enable-background:new 0 0 83.1 82;" xml:space="preserve">
<path d="M55.3,34.3v32.2c0,0.9-0.5,1.7-1.3,2.1l-12.3,6.1c-1.5,0.8-3.3-0.3-3.3-2.1V40.4c0-0.9,0.5-1.7,1.3-2.1L52,32.2
	C53.5,31.5,55.3,32.6,55.3,34.3z M35.5,38.3l-13.8-6.1c-1.5-0.7-3.2,0.4-3.2,2.1v32.2c0,0.9,0.5,1.7,1.4,2.1l13.8,6.1
	c1.5,0.7,3.2-0.4,3.2-2.1V40.4C36.9,39.5,36.3,38.7,35.5,38.3z M13.6,32.2L1.3,38.4C0.5,38.8,0,39.6,0,40.4v32.2
	c0,1.7,1.8,2.8,3.3,2.1l12.3-6.1c0.8-0.4,1.3-1.2,1.3-2.1V34.3C16.9,32.6,15.1,31.5,13.6,32.2L13.6,32.2z"/>
</svg>
